<?xml version="1.0" standalone="no"?>
<!DOCTYPE svg PUBLIC "-//W3C//DTD SVG 20010904//EN"
 "http://www.w3.org/TR/2001/REC-SVG-20010904/DTD/svg10.dtd">
<svg version="1.0" xmlns="http://www.w3.org/2000/svg"
 width="768.000000pt" height="768.000000pt" viewBox="0 0 768.000000 768.000000"
 preserveAspectRatio="xMidYMid meet">
<metadata>
Created by potrace 1.11, written by Peter Selinger 2001-2013
</metadata>
<g transform="translate(0.000000,768.000000) scale(0.100000,-0.100000)"
fill="#000000" stroke="none">
<path d="M1763 7670 c-52 -11 -111 -41 -140 -72 -28 -30 -98 -178 -114 -241
-6 -27 -10 -82 -7 -127 4 -70 9 -86 42 -139 36 -58 36 -62 38 -168 2 -83 -2
-121 -17 -165 -16 -51 -17 -66 -7 -133 6 -41 27 -123 47 -182 74 -232 75 -235
75 -344 1 -212 39 -415 136 -712 99 -301 194 -511 437 -962 134 -249 147 -265
218 -265 28 0 29 1 23 38 -8 55 16 112 59 142 20 14 54 50 74 80 33 48 38 63
40 120 5 171 12 260 22 277 5 11 15 58 22 106 10 70 10 95 -1 126 -7 21 -9 48
-5 61 6 19 9 20 22 8 8 -8 21 -40 29 -71 21 -80 47 -137 99 -218 25 -38 82
-129 127 -202 98 -158 248 -321 333 -363 58 -28 146 -54 185 -54 14 0 38 -7
54 -15 58 -30 148 -11 154 33 4 24 -16 30 -35 11 -8 -8 -17 -8 -32 1 -12 6
-56 20 -99 31 -146 37 -256 110 -404 268 -101 107 -169 212 -214 329 -31 80
-41 96 -69 109 -24 11 -31 21 -28 34 3 12 -1 21 -11 25 -15 6 -15 8 -1 18 13
10 12 22 -6 111 -15 73 -20 125 -17 190 5 110 24 151 102 223 110 100 244 122
389 63 95 -38 115 -38 211 -6 128 43 173 30 196 -56 17 -63 51 -111 74 -105
13 3 30 -6 51 -27 48 -50 332 -267 348 -267 27 0 -6 66 -64 127 -62 65 -74 93
-88 208 -5 44 -13 89 -17 100 -9 24 -4 21 34 -27 26 -33 29 -43 24 -88 -4 -40
-1 -50 10 -50 19 0 48 -32 48 -53 0 -9 5 -17 10 -17 20 0 22 31 7 93 -9 34
-19 83 -22 108 -7 46 -7 46 27 53 50 11 414 23 853 29 353 5 388 4 368 -10
-68 -46 36 -41 113 6 43 26 63 30 173 39 136 11 161 7 187 -33 15 -22 15 -37
5 -133 -12 -115 -15 -330 -5 -356 3 -9 12 -16 20 -16 10 0 14 16 14 63 0 73
63 471 86 539 23 71 86 153 137 177 50 24 97 28 97 8 0 -8 7 -28 16 -46 14
-28 15 -46 5 -139 -14 -139 -14 -157 5 -114 8 19 17 83 21 146 5 92 3 117 -11
143 -42 83 -109 85 -265 8 -62 -30 -119 -55 -127 -55 -19 0 -18 14 2 31 8 7
22 25 30 41 14 27 17 28 64 22 46 -6 49 -5 64 24 22 42 21 105 -2 125 -32 29
-136 71 -187 75 -32 3 -64 -2 -87 -11 -23 -10 -52 -13 -77 -10 -35 5 -50 0
-99 -29 -31 -20 -67 -39 -79 -42 -28 -9 -80 -69 -64 -74 7 -2 29 7 49 21 57
39 86 47 175 46 144 -1 202 -32 159 -86 -12 -15 -30 -46 -40 -68 -28 -58 -53
-76 -119 -85 -32 -4 -71 -13 -88 -20 -17 -6 -96 -14 -177 -17 -82 -3 -148 -10
-148 -14 0 -4 8 -12 17 -17 14 -8 12 -11 -13 -15 -16 -4 -60 -9 -99 -13 -38
-4 -72 -10 -75 -14 -3 -4 -44 -10 -92 -13 -70 -5 -91 -3 -102 9 -8 8 -19 14
-23 13 -4 -1 -15 0 -23 3 -66 25 -165 30 -352 19 -135 -8 -203 -8 -222 -1 -15
5 -39 10 -53 10 -24 0 -25 2 -19 44 10 63 -1 96 -30 96 -21 0 -24 -6 -30 -51
-4 -32 -16 -61 -30 -78 -38 -42 -45 -12 -18 72 13 40 26 84 29 99 3 19 14 30
39 38 38 12 56 47 56 109 0 20 11 56 25 80 33 56 32 65 -6 57 l-30 -6 21 30
c58 82 41 180 -21 124 -16 -15 -17 -14 -12 7 5 19 3 21 -15 17 -12 -4 -22 -4
-22 -2 0 15 43 86 55 91 18 6 20 49 3 59 -17 10 -72 -58 -115 -141 -40 -79
-41 -80 -49 -72 -12 12 35 95 94 166 34 40 62 79 62 85 0 7 -11 23 -25 36 -14
13 -25 26 -25 30 0 4 11 13 25 20 25 13 35 53 16 65 -6 3 -6 17 1 35 7 21 16
30 33 30 12 0 34 9 48 20 32 26 40 25 91 -5 49 -29 177 -50 247 -41 55 7 167
44 226 74 22 12 57 41 78 64 46 53 105 168 105 204 0 26 -1 26 -19 10 -18 -16
-18 -15 -10 26 4 24 8 79 9 123 0 121 8 155 33 152 18 -2 22 5 28 46 14 93 45
103 220 67 117 -24 218 -62 347 -131 51 -27 101 -49 112 -49 14 0 29 19 54 68
33 65 66 164 66 196 0 15 -175 16 -2002 15 -1102 -1 -2022 -5 -2045 -9z m3037
-392 c0 -40 -58 -180 -87 -211 l-28 -29 33 4 c17 3 32 3 32 1 0 -2 -12 -22
-27 -44 -39 -59 -102 -93 -161 -86 -26 2 -69 -1 -95 -8 -39 -10 -50 -10 -54 0
-2 7 -16 16 -30 20 -25 6 -25 6 -7 33 11 15 31 51 46 80 23 45 36 58 85 82 32
17 90 55 128 86 119 97 165 117 165 72z m58 -280 c-8 -12 -25 -28 -39 -37 -18
-11 -16 -6 10 22 39 42 50 48 29 15z m-628 -43 c0 -21 -41 -60 -84 -81 l-51
-25 57 55 c49 49 78 68 78 51z m530 -30 c0 -2 -10 -9 -22 -15 -22 -11 -22 -10
-4 4 21 17 26 19 26 11z m-776 -331 l29 -26 -32 -30 c-39 -36 -43 -48 -65
-158 -10 -47 -36 -128 -58 -180 -25 -59 -43 -119 -47 -158 -8 -68 -14 -79 -51
-84 -24 -3 -25 -7 -30 -78 -4 -67 -7 -75 -25 -75 -19 0 -20 5 -16 110 2 82 8
122 23 157 11 26 18 54 15 62 -3 8 1 17 9 20 8 3 14 17 14 32 0 14 9 33 20 42
11 10 34 44 51 77 18 33 43 80 56 105 17 31 23 56 20 80 -4 34 34 130 51 130
4 0 20 -12 36 -26z m-218 -130 c-8 -20 -50 -14 -54 8 -2 10 8 22 25 30 25 12
28 12 31 -5 2 -10 1 -25 -2 -33z m-170 -360 c-3 -31 -11 -65 -17 -77 -8 -13
-9 -47 -5 -95 5 -50 3 -78 -5 -88 -20 -24 -28 -6 -22 47 5 46 4 51 -13 47 -15
-3 -22 7 -36 52 -17 54 -17 55 2 72 11 9 20 24 20 33 0 12 5 15 20 10 17 -5
21 -1 26 24 4 18 13 31 22 31 12 0 14 -10 8 -56z m1920 -313 c-10 -11 -24 -17
-32 -14 -29 11 -11 31 30 32 18 1 18 0 2 -18z m184 -1 c0 -9 -50 -20 -91 -20
-30 0 -36 9 -20 26 12 11 111 6 111 -6z m-271 6 c-2 -2 -20 -11 -39 -21 l-35
-18 19 22 c11 11 28 21 39 21 11 0 18 -2 16 -4z m-1619 -211 c-7 -8 -20 -15
-29 -15 -13 1 -13 3 3 15 26 19 42 19 26 0z"/>
<path d="M4972 7311 c-15 -47 -15 -71 -2 -71 9 0 13 12 24 78 8 45 -8 40 -22
-7z"/>
<path d="M4432 6547 c-13 -6 -39 -34 -57 -61 -18 -28 -58 -79 -89 -113 -60
-66 -68 -83 -36 -83 13 0 20 -7 20 -20 0 -11 4 -20 9 -20 4 0 38 27 74 60 80
73 109 129 105 198 -3 48 -4 49 -26 39z"/>
<path d="M3044 5559 c-29 -8 -72 -44 -63 -53 7 -7 169 47 169 56 0 10 -66 9
-106 -3z"/>
<path d="M3270 5511 c0 -10 -3 -39 -6 -65 -6 -39 -4 -46 10 -46 9 0 21 11 26
25 7 18 17 25 35 25 33 0 32 10 -8 48 -37 36 -57 41 -57 13z"/>
<path d="M3387 5281 c-10 -17 -50 -59 -88 -93 -74 -66 -99 -102 -99 -140 1
-53 16 -52 60 5 37 50 46 56 82 59 l41 3 14 65 c7 36 12 80 11 98 l-3 34 -18
-31z"/>
<path d="M3442 5064 c-24 -17 -30 -53 -8 -50 12 1 63 -56 128 -143 15 -20 32
-57 38 -83 13 -53 19 -57 43 -30 25 27 21 47 -18 98 -19 25 -42 70 -51 101
-26 90 -87 139 -132 107z"/>
<path d="M6319 4989 c-20 -10 -39 -27 -42 -39 -7 -28 2 -25 48 14 47 40 44 52
-6 25z"/>
<path d="M5915 4920 c-10 -15 3 -76 18 -88 17 -13 57 -22 73 -15 13 5 12 8 -1
24 -9 9 -24 33 -33 51 -18 34 -45 48 -57 28z"/>
<path d="M3060 4790 c0 -19 49 -89 70 -100 27 -14 25 -5 -7 45 -27 43 -63 74
-63 55z"/>
<path d="M5995 4315 c-175 -47 -179 -49 -189 -78 -5 -15 -7 -30 -3 -33 4 -4
35 6 69 22 35 15 114 42 176 59 62 17 114 36 115 41 4 18 -80 13 -168 -11z"/>
<path d="M1527 3999 c-63 -15 -89 -28 -135 -65 -75 -62 -172 -106 -312 -144
-69 -19 -140 -46 -179 -68 -36 -20 -77 -44 -93 -53 -23 -14 -48 -16 -131 -12
l-102 5 -120 -62 c-66 -35 -158 -91 -205 -125 -47 -34 -106 -76 -132 -94 l-48
-32 0 -1128 0 -1128 73 -21 c40 -12 92 -35 115 -52 l42 -30 10 25 c6 15 10 31
10 38 0 40 212 369 426 660 220 299 328 427 647 772 77 82 144 159 149 171 8
16 3 33 -21 79 -17 32 -31 66 -31 76 0 32 48 75 140 124 136 72 141 80 172
271 31 186 65 310 114 413 19 41 33 76 31 78 -2 2 -21 -4 -43 -14 -49 -21
-234 -19 -296 3 -64 22 -106 59 -114 99 -8 45 0 55 91 104 86 48 131 83 138
111 5 18 0 20 -56 19 -34 0 -97 -9 -140 -20z"/>
<path d="M6217 3733 c-3 -4 -10 -35 -16 -67 -12 -63 -32 -102 -64 -125 -11 -7
-79 -44 -153 -82 -143 -72 -171 -80 -484 -142 l-165 -32 1 -35 c1 -19 18 -87
39 -150 69 -217 104 -514 71 -595 -12 -27 -22 -35 -53 -42 -66 -14 -223 -8
-285 11 -109 33 -150 78 -168 182 -18 102 -19 104 -43 104 -24 0 -55 -39 -82
-103 -27 -66 -23 -70 205 -216 262 -168 433 -314 605 -516 173 -204 355 -469
355 -518 0 -31 -86 -110 -270 -249 -173 -131 -374 -285 -492 -378 -55 -43
-105 -77 -112 -74 -14 5 -46 66 -46 87 0 7 -30 64 -66 127 -36 63 -83 149
-104 191 -39 76 -83 124 -143 155 -17 10 -92 37 -166 61 -73 24 -159 59 -191
78 -135 82 -186 93 -219 46 -35 -48 -94 -65 -208 -57 -54 3 -123 9 -154 12
l-56 6 -7 -228 c-4 -126 -11 -395 -16 -599 -5 -203 -12 -398 -16 -431 -4 -34
-3 -83 0 -108 l7 -46 810 0 c445 0 809 2 809 4 0 3 -12 37 -26 76 -14 40 -23
74 -20 77 17 18 156 -66 215 -131 22 -23 32 -26 94 -26 l69 0 158 118 c86 64
229 170 316 234 88 64 185 139 217 167 72 61 153 155 161 187 12 46 -12 99
-79 175 -36 40 -65 77 -65 82 0 12 62 36 138 51 130 27 509 59 975 82 l137 7
0 728 c0 400 2 733 5 741 2 7 -19 30 -51 53 -66 48 -211 207 -230 252 -8 18
-14 46 -14 63 0 40 -32 102 -80 153 -21 23 -45 60 -54 82 -10 22 -29 53 -44
68 -21 22 -27 40 -33 98 -8 89 -25 108 -149 167 -157 73 -254 107 -480 168
-233 62 -275 70 -283 57z m-775 -3063 c-45 -42 -58 -49 -80 -44 -15 4 -30 10
-35 14 -6 5 145 79 163 79 3 0 -19 -22 -48 -49z"/>
<path d="M2280 3721 c8 -6 24 -11 35 -11 11 0 26 -4 34 -9 11 -7 11 -13 -3
-32 -9 -13 -16 -34 -16 -47 0 -22 3 -23 28 -16 15 5 54 8 87 9 l60 0 23 -47
c23 -50 36 -57 66 -35 17 13 18 18 6 68 -18 76 -62 119 -121 119 -24 0 -82 3
-129 6 -62 4 -81 3 -70 -5z"/>
<path d="M1963 3643 c-41 -106 -40 -101 -15 -79 12 10 31 43 42 73 24 63 24
63 7 63 -6 0 -22 -26 -34 -57z"/>
<path d="M5253 3198 c2 -24 11 -56 18 -73 l13 -30 4 35 c4 41 -14 110 -30 110
-7 0 -9 -15 -5 -42z"/>
<path d="M4760 3131 c-190 -65 -210 -82 -210 -172 0 -47 5 -63 25 -87 27 -32
31 -58 15 -112 -19 -66 -2 -80 73 -59 34 9 42 18 62 64 13 29 29 56 34 60 20
12 11 27 -11 22 -14 -4 3 17 45 54 78 70 137 166 137 222 0 37 0 37 -42 37
-24 0 -81 -13 -128 -29z"/>
<path d="M3310 3040 c0 -17 73 -59 145 -83 131 -45 250 -99 294 -133 47 -36
61 -40 78 -23 8 8 13 5 18 -11 6 -18 12 -21 35 -17 24 5 27 3 23 -13 -6 -23 0
-25 26 -8 16 9 28 8 63 -7 24 -10 52 -27 64 -37 12 -10 36 -18 58 -18 20 0 51
-7 68 -16 43 -22 202 -64 242 -64 52 0 51 13 -1 31 -26 9 -118 47 -203 83 -85
37 -200 85 -255 106 -55 21 -143 61 -196 88 -143 73 -459 157 -459 122z"/>
<path d="M2565 2857 c-60 -16 -150 -55 -143 -63 3 -2 52 5 109 16 57 12 144
24 192 27 60 4 84 9 73 15 -28 16 -178 19 -231 5z"/>
<path d="M1856 2680 c-196 -48 -187 -45 -154 -60 15 -7 35 -24 43 -37 20 -29
48 -29 133 0 45 15 82 37 116 68 28 25 60 51 71 57 41 23 -48 11 -209 -28z"/>
<path d="M2550 2386 c0 -52 61 -57 165 -15 l30 12 -34 7 c-18 5 -62 11 -97 15
l-64 7 0 -26z"/>
<path d="M2517 1718 c-25 -18 -69 -51 -98 -74 -181 -138 -443 -316 -526 -358
-121 -61 -202 -139 -260 -253 -48 -91 -121 -298 -164 -462 -17 -64 -44 -159
-61 -211 -26 -83 -98 -344 -98 -356 0 -2 428 -4 951 -4 l951 0 -7 84 c-3 46
-11 101 -16 122 -11 51 -11 182 1 264 18 128 30 279 45 565 8 160 18 342 21
405 5 92 4 118 -7 127 -22 17 -211 79 -349 113 -69 17 -154 40 -189 51 -94 29
-140 25 -194 -13z"/>
<path d="M3288 484 c-5 -4 -8 -24 -8 -44 0 -24 -7 -43 -20 -55 -11 -10 -20
-23 -20 -28 0 -9 46 -57 54 -57 2 0 6 19 10 43 6 49 -5 152 -16 141z"/>
</g>
</svg>
